HIERARCHY
ROOT Hips
{
	OFFSET -3.958830 18.904000 13.208200
	CHANNELS 6 Xposition Yposition Zposition Zrotation Yrotation Xrotation 
	JOINT LHipJoint
	{
		OFFSET 0.000000 0.000000 0.000000
		CHANNELS 3 Zrotation Yrotation Xrotation
		JOINT LeftUpLeg
		{
			OFFSET 1.800000 -1.400000 0.085000
			CHANNELS 3 Zrotation Yrotation Xrotation
			JOINT LeftLeg
			{
				OFFSET 2.215000 -6.000000 0.000000
				CHANNELS 3 Zrotation Yrotation Xrotation
				JOINT LeftFoot
				{
					OFFSET 2.500000 -6.900000 0.000000
					CHANNELS 3 Zrotation Yrotation Xrotation
					JOINT LeftToeBase
					{
						OFFSET 0.200000 -0.500000 1.950000
						CHANNELS 3 Zrotation Yrotation Xrotation
						End Site
						{
							OFFSET 0.000000 0.000000 0.000000
						}
					}
				}
			}
		}
	}
	JOINT RHipJoint
	{
		OFFSET 0.000000 0.000000 0.000000
		CHANNELS 3 Zrotation Yrotation Xrotation
		JOINT RightUpLeg
		{
			OFFSET -1.800000 -1.400000 0.085000
			CHANNELS 3 Zrotation Yrotation Xrotation
			JOINT RightLeg
			{
				OFFSET -2.215000 -6.000000 0.000000
				CHANNELS 3 Zrotation Yrotation Xrotation
				JOINT RightFoot
				{
					OFFSET -2.500000 -6.900000 0.000000
					CHANNELS 3 Zrotation Yrotation Xrotation
					JOINT RightToeBase
					{
						OFFSET -0.200000 -0.500000 1.950000
						CHANNELS 3 Zrotation Yrotation Xrotation
						End Site
						{
							OFFSET 0.000000 0.000000 0.000000
						}
					}
				}
			}
		}
	}
	JOINT LowerBack
	{
		OFFSET 0.000000 0.000000 0.000000
		CHANNELS 3 Zrotation Yrotation Xrotation
		JOINT Spine
		{
			OFFSET -0.087000 1.940000 -0.288900
			CHANNELS 3 Zrotation Yrotation Xrotation
			JOINT Spine1
			{
				OFFSET 0.000000 1.950000 0.060000
				CHANNELS 3 Zrotation Yrotation Xrotation
				JOINT Neck
				{
					OFFSET 0.000000 0.000000 0.000000
					CHANNELS 3 Zrotation Yrotation Xrotation
					JOINT Neck1
					{
						OFFSET 0.000000 1.600000 0.340000
						CHANNELS 3 Zrotation Yrotation Xrotation
						JOINT Head
						{
							OFFSET 0.000000 1.667000 -0.240000
							CHANNELS 3 Zrotation Yrotation Xrotation
							End Site
							{
								OFFSET 0.000000 0.000000 0.000000
							}
						}
					}
				}
				JOINT LeftShoulder
				{
					OFFSET 0.000000 0.000000 0.000000
					CHANNELS 3 Zrotation Yrotation Xrotation
					JOINT LeftArm
					{
						OFFSET 2.700000 1.550000 -0.730000
						CHANNELS 3 Zrotation Yrotation Xrotation
						JOINT LeftForeArm
						{
							OFFSET 5.450000 0.000000 0.000000
							CHANNELS 3 Zrotation Yrotation Xrotation
							JOINT LeftHand
							{
								OFFSET 3.450000 0.000000 0.000000
								CHANNELS 3 Zrotation Yrotation Xrotation
								JOINT LeftHandIndex1
								{
									OFFSET 0.750000 0.000000 0.000000
									CHANNELS 3 Zrotation Yrotation Xrotation
									End Site
									{
										OFFSET 0.000000 0.000000 0.000000
									}
								}
							}
						}
					}
				}
				JOINT RightShoulder
				{
					OFFSET 0.000000 0.000000 0.000000
					CHANNELS 3 Zrotation Yrotation Xrotation
					JOINT RightArm
					{
						OFFSET -2.700000 1.550000 -0.730000
						CHANNELS 3 Zrotation Yrotation Xrotation
						JOINT RightForeArm
						{
							OFFSET -5.450000 0.000000 0.000000
							CHANNELS 3 Zrotation Yrotation Xrotation
							JOINT RightHand
							{
								OFFSET -3.450000 0.000000 0.000000
								CHANNELS 3 Zrotation Yrotation Xrotation
								JOINT RightHandIndex1
								{
									OFFSET -0.750000 0.000000 0.000000
									CHANNELS 3 Zrotation Yrotation Xrotation
									End Site
									{
										OFFSET 0.000000 0.000000 0.000000
									}
								}
							}
						}
					}
				}
			}
		}
	}
}
MOTION
Frames: 4
Frame Time: 0.016667
2.074000 17.567410 -1.907340 1.192694 30.548908 -1.941338 -15.328410 13.179264 2.822035 -1.287196 -0.455013 -3.814624 -9.146126 7.934491 19.904040 -0.446344 5.334132 2.657134 0.424590 0.000450 0.551990 18.260142 -9.207388 4.752022 2.053442 11.903707 -41.734690 4.029330 -8.086199 47.412395 -0.837860 -6.149190 2.137015 0.061190 -0.107910 0.133690 -3.964158 -2.857882 -8.731253 15.737182 -7.856881 31.245318 -4.607374 -2.927782 -0.709356 4.217821 -0.669782 -6.609684 -5.518542 -1.156381 56.627033 -4.095020 -2.643940 -14.285040 -26.520265 0.848498 -0.041740 -41.686054 11.528018 -12.202001 -51.875754 -27.119459 6.743596 -3.453687 2.940117 0.894160 -0.155640 0.186390 -0.042720 18.535188 -0.473843 1.915969 42.720422 -7.120617 -16.633636 -18.332065 34.479113 -5.153343 1.961222 -1.011961 -0.281530 0.248580 0.051680 -0.405970 
2.154750 17.556030 -1.823150 1.339920 29.523197 -1.077476 -15.277305 13.218804 2.940867 -1.729018 -0.097669 -2.835105 -9.687116 7.790232 18.128108 -0.424067 5.250643 2.706480 0.417970 -0.002300 0.541160 18.277437 -9.452552 4.459380 4.223503 10.333563 -39.266695 4.612609 -6.408633 37.064236 -0.466325 -4.279083 2.778535 0.057600 -0.093560 0.133220 -4.091832 -2.668312 -8.585503 16.446408 -8.311219 28.609731 -5.249796 -3.644877 -0.040965 4.135135 -1.256528 -6.479956 -6.721253 -0.284260 56.123191 -4.744490 -2.178160 -13.212080 -25.676247 1.485422 -0.098367 -42.377314 11.198080 -12.045740 -50.430597 -25.804277 5.905925 -3.473295 2.940319 0.861000 -0.138400 0.169230 -0.034040 17.782512 -1.139167 1.711869 43.194806 -6.880866 -16.704086 -17.612820 34.430138 -5.072388 1.976412 -1.030106 -0.273870 0.240320 0.046630 -0.394050 
2.242180 17.535700 -1.732440 1.952437 29.242284 0.138042 -15.252339 13.253185 3.060390 -2.593060 0.267652 -2.014912 -9.916952 7.602318 16.651108 -0.379629 5.157868 2.770655 0.404490 -0.010060 0.531460 18.275911 -9.670713 4.165160 5.387647 8.514887 -37.078366 5.412880 -5.182981 27.231223 -0.198179 -2.785488 3.330613 0.040010 -0.072500 0.135730 -4.161559 -2.548083 -8.471558 16.536597 -8.502519 25.585664 -5.528688 -4.359292 0.725011 4.189876 -1.087611 -6.728676 -6.435587 -0.273485 56.199945 -5.575770 -1.735860 -11.663040 -24.402589 1.484227 0.220070 -43.674923 10.808198 -11.990583 -48.641446 -24.285433 4.949844 -3.498222 2.918188 0.826420 -0.115140 0.161950 -0.015070 16.442801 -1.609609 1.828438 44.553402 -7.114129 -17.003953 -17.710115 34.024254 -5.173984 1.994270 -1.041147 -0.261730 0.238970 0.032470 -0.376220 
2.314900 17.514290 -1.647910 2.739052 28.620952 1.443585 -15.263640 13.271878 3.151564 -3.572830 0.653511 -1.390926 -10.118991 7.435400 15.211172 -0.361951 5.080355 2.818489 0.376010 -0.038870 0.516550 18.265777 -9.726869 3.986365 6.444244 7.267931 -35.381961 5.592637 -4.080006 18.942610 -0.018051 -1.797305 3.717370 0.023110 -0.056560 0.126520 -4.114301 -2.619702 -8.425987 15.770499 -8.495476 23.090691 -5.251948 -4.965351 1.416290 4.205510 -1.014478 -7.005303 -6.460782 -0.205783 55.964044 -6.878760 -1.167070 -10.023150 -23.368649 1.299831 0.555825 -44.705436 10.563398 -11.894205 -47.359633 -22.707231 4.084821 -3.528131 2.895824 0.797780 -0.088720 0.137780 -0.014040 15.470925 -1.682800 2.035804 45.141825 -7.408755 -17.210249 -17.443852 34.084451 -5.194880 1.995807 -1.053903 -0.268590 0.234440 0.035210 -0.375190 
